<svg height="512" viewBox="0 0 64 64" width="512" xmlns="http://www.w3.org/2000/svg"><g id="Layer_19" data-name="Layer 19"><path d="m18 2h28v8h-28z" fill="#f4b2b0"/><path d="m21 10h22v4h-22z" fill="#f4b2b0"/><path d="m22 22h6v4h-6z" fill="#f4b2b0"/><path d="m36 22h6v4h-6z" fill="#f4b2b0"/><path d="m18 14h28v8h-28z" fill="#f4b2b0"/><g fill="#b3404a"><path d="m41 5h2v2h-2z"/><path d="m37 5h2v2h-2z"/><path d="m33 5h2v2h-2z"/><path d="m21 5h2v2h-2z"/><path d="m41 17h2v2h-2z"/><path d="m37 17h2v2h-2z"/><path d="m33 17h2v2h-2z"/><path d="m21 17h2v2h-2z"/><path d="m25 41h2v2h-2z"/><path d="m21 41h2v2h-2z"/><path d="m17 41h2v2h-2z"/><path d="m5 41h2v2h-2z"/><path d="m25 53h2v2h-2z"/><path d="m21 53h2v2h-2z"/><path d="m17 53h2v2h-2z"/><path d="m5 53h2v2h-2z"/><path d="m62 47a1 1 0 0 0 1-1v-8a1 1 0 0 0 -1-1h-13v-3a3 3 0 0 0 -3-3h-13v-8h2v3a1 1 0 0 0 1 1h6a1 1 0 0 0 1-1v-3h3a1 1 0 0 0 1-1v-8a1 1 0 0 0 -1-1h-2v-2h2a1 1 0 0 0 1-1v-8a1 1 0 0 0 -1-1h-28a1 1 0 0 0 -1 1v8a1 1 0 0 0 1 1h2v2h-2a1 1 0 0 0 -1 1v8a1 1 0 0 0 1 1h3v3a1 1 0 0 0 1 1h6a1 1 0 0 0 1-1v-3h2v8h-13a3 3 0 0 0 -3 3v3h-13a1 1 0 0 0 -1 1v8a1 1 0 0 0 1 1h2v2h-2a1 1 0 0 0 -1 1v8a1 1 0 0 0 1 1h3v3a1 1 0 0 0 1 1h6a1 1 0 0 0 1-1v-3h6v3a1 1 0 0 0 1 1h6a1 1 0 0 0 1-1v-3h3a1 1 0 0 0 1-1v-8a1 1 0 0 0 -1-1h-2v-2h2a1 1 0 0 0 1-1v-8a1 1 0 0 0 -1-1h-13v-3a1 1 0 0 1 1-1h28a1 1 0 0 1 1 1v3h-13a1 1 0 0 0 -1 1v8a1 1 0 0 0 1 1h2v2h-2a1 1 0 0 0 -1 1v8a1 1 0 0 0 1 1h3v3a1 1 0 0 0 1 1h6a1 1 0 0 0 1-1v-3h6v3a1 1 0 0 0 1 1h6a1 1 0 0 0 1-1v-3h3a1 1 0 0 0 1-1v-8a1 1 0 0 0 -1-1h-2v-2zm-21-22h-4v-2h4zm-22-22h26v6h-26zm3 8h20v2h-20zm5 14h-4v-2h4zm-8-4v-6h26v6zm-8 40h-4v-2h4zm14 0h-4v-2h4zm4-4h-26v-6h26zm-3-8h-20v-2h20zm3-4h-26v-6h26zm6-6h26v6h-26zm8 22h-4v-2h4zm14 0h-4v-2h4zm4-4h-26v-6h26zm-3-8h-20v-2h20z"/><path d="m57 41h2v2h-2z"/><path d="m53 41h2v2h-2z"/><path d="m49 41h2v2h-2z"/><path d="m37 41h2v2h-2z"/><path d="m57 53h2v2h-2z"/><path d="m53 53h2v2h-2z"/><path d="m49 53h2v2h-2z"/><path d="m37 53h2v2h-2z"/></g></g></svg>