<svg id="Capa_1" enable-background="new 0 0 512 512" height="512" viewBox="0 0 512 512" width="512" xmlns="http://www.w3.org/2000/svg" xmlns:xlink="http://www.w3.org/1999/xlink"><linearGradient id="SVGID_1_" gradientUnits="userSpaceOnUse" x1="256" x2="256" y1="512" y2="0"><stop offset="0" stop-color="#ffc2cc"/><stop offset="1" stop-color="#fff2f4"/></linearGradient><linearGradient id="SVGID_2_" gradientUnits="userSpaceOnUse" x1="256" x2="256" y1="407" y2="105"><stop offset="0" stop-color="#ffa68d"/><stop offset="1" stop-color="#fd3a84"/></linearGradient><g><g><circle cx="256" cy="256" fill="url(#SVGID_1_)" r="256"/></g><g><g><path d="m398.118 143.258v-11.611c0-4.91-3.973-8.882-8.882-8.882s-8.882 3.973-8.882 8.882v11.611c-5.212 3.101-8.882 8.545-8.882 15.036v88.823h35.528v-88.823c0-6.49-3.67-11.935-8.882-15.036zm-26.647 170.729c0 18.067 3.156 36.108 8.882 53.283v13.083c0 4.91 3.973 8.882 8.882 8.882s8.882-3.973 8.882-8.882v-13.079c5.727-17.176 8.882-35.218 8.882-53.287v-49.104h-35.529v49.104zm-44.412-208.987h-213.177c-4.91 0-8.882 3.973-8.882 8.882v284.235c0 4.91 3.973 8.882 8.882 8.882h213.177c4.909 0 8.882-3.973 8.882-8.882v-284.235c0-4.909-3.973-8.882-8.882-8.882zm-159.882 53.294h53.294c4.909 0 8.882 3.973 8.882 8.882s-3.973 8.882-8.882 8.882h-53.294c-4.91 0-8.882-3.973-8.882-8.882s3.972-8.882 8.882-8.882zm106.588 195.412h-53.294c-4.91 0-8.882-3.973-8.882-8.882 0-4.91 3.973-8.882 8.882-8.882h53.294c4.91 0 8.882 3.973 8.882 8.882s-3.973 8.882-8.882 8.882zm0-35.53h-106.588c-4.91 0-8.882-3.973-8.882-8.882 0-4.91 3.973-8.882 8.882-8.882h106.588c4.91 0 8.882 3.973 8.882 8.882 0 4.91-3.973 8.882-8.882 8.882zm0-35.529h-106.588c-4.91 0-8.882-3.973-8.882-8.882 0-4.91 3.973-8.882 8.882-8.882h106.588c4.91 0 8.882 3.973 8.882 8.882s-3.973 8.882-8.882 8.882zm0-35.529h-106.588c-4.91 0-8.882-3.973-8.882-8.882 0-4.91 3.973-8.882 8.882-8.882h106.588c4.91 0 8.882 3.973 8.882 8.882s-3.973 8.882-8.882 8.882zm0-35.53h-106.588c-4.91 0-8.882-3.973-8.882-8.882s3.973-8.882 8.882-8.882h106.588c4.91 0 8.882 3.973 8.882 8.882s-3.973 8.882-8.882 8.882z" fill="url(#SVGID_2_)"/></g></g></g></svg>