<?xml version="1.0"?>
<svg xmlns="http://www.w3.org/2000/svg" xmlns:xlink="http://www.w3.org/1999/xlink" xmlns:svgjs="http://svgjs.com/svgjs" version="1.1" width="512" height="512" x="0" y="0" viewBox="0 0 64 64" style="enable-background:new 0 0 512 512" xml:space="preserve"><g><path xmlns="http://www.w3.org/2000/svg" d="m52 35a7.992 7.992 0 0 1 2 .262v-3.262h-43v10h33.069a8 8 0 0 1 7.931-7z" fill="#f36986" data-original="#f4b2b0" style=""/><path xmlns="http://www.w3.org/2000/svg" d="m54 20.253v-3.253h-43v10h33.062 3.038 6.9v-3.583z" fill="#f36986" data-original="#f4b2b0" style=""/><path xmlns="http://www.w3.org/2000/svg" d="m54 5.253v-3.253h-43v10h33.062 3.038 6.9v-3.583z" fill="#f36986" data-original="#f4b2b0" style=""/><g xmlns="http://www.w3.org/2000/svg" fill="#b3404a"><path d="m62 48h-1v-5a9.006 9.006 0 0 0 -6-8.475v-2.525a1 1 0 0 0 -1-1h-3v-3h3a1 1 0 0 0 1-1v-10a1 1 0 0 0 -1-1h-3v-3h3a1 1 0 0 0 1-1v-10a1 1 0 0 0 -1-1h-43a1 1 0 0 0 -1 1v10a1 1 0 0 0 1 1h2v3h-2a1 1 0 0 0 -1 1v10a1 1 0 0 0 1 1h2v3h-2a1 1 0 0 0 -1 1v10a1 1 0 0 0 1 1h15.09a6.007 6.007 0 0 0 2.91 4.188v4.624a6.024 6.024 0 0 0 -2.188 2.188h-24.812a1 1 0 0 0 -1 1v4a1 1 0 0 0 1 1h24.812a5.986 5.986 0 0 0 10.376 0h3.812v2a1 1 0 0 0 1 1h20a1 1 0 0 0 1-1v-13a1 1 0 0 0 -1-1zm-59 10v-2h23.09a5.6 5.6 0 0 0 0 2zm56-15v5h-1v-5a6 6 0 0 0 -12 0v5h-1v-5a7 7 0 0 1 14 0zm-11 0h6a1 1 0 0 0 1-1v-1.618a3.966 3.966 0 0 1 1 2.618v5h-8zm.556-2a3.987 3.987 0 0 1 3.444-2 3.939 3.939 0 0 1 1 .142v1.858zm-36.556-38h41v8h-41zm3 10h34v3h-34zm-3 5h41v8h-41zm3 10h34v3h-34zm-3 5h41v1.059a8.958 8.958 0 0 0 -9.768 6.941h-31.232zm23.858 10a3.981 3.981 0 0 1 -7.716 0zm-4.858 4.91a5.6 5.6 0 0 0 2 0v3.18a5.6 5.6 0 0 0 -2 0zm1 13.09a4 4 0 1 1 4-4 4 4 0 0 1 -4 4zm5.91-3a5.6 5.6 0 0 0 0-2h3.09v2zm3.09-9v5h-3.812a6.024 6.024 0 0 0 -2.188-2.188v-4.624a6.007 6.007 0 0 0 2.91-4.188h5.09v5h-1a1 1 0 0 0 -1 1zm20 12h-18v-11h18z" fill="#b3404a" data-original="#b3404a" style=""/><path d="m58 51h2v2h-2z" fill="#b3404a" data-original="#b3404a" style=""/><path d="m44 51h2v2h-2z" fill="#b3404a" data-original="#b3404a" style=""/><path d="m44 58h2v2h-2z" fill="#b3404a" data-original="#b3404a" style=""/><path d="m58 58h2v2h-2z" fill="#b3404a" data-original="#b3404a" style=""/><path d="m23 34h-9a1 1 0 0 0 -1 1v4a1 1 0 0 0 1 1h9a1 1 0 0 0 1-1v-4a1 1 0 0 0 -1-1zm-1 4h-7v-2h7z" fill="#b3404a" data-original="#b3404a" style=""/><path d="m26 36h2v2h-2z" fill="#b3404a" data-original="#b3404a" style=""/><path d="m30 36h2v2h-2z" fill="#b3404a" data-original="#b3404a" style=""/><path d="m34 36h2v2h-2z" fill="#b3404a" data-original="#b3404a" style=""/><path d="m38 36h2v2h-2z" fill="#b3404a" data-original="#b3404a" style=""/><path d="m23 19h-9a1 1 0 0 0 -1 1v4a1 1 0 0 0 1 1h9a1 1 0 0 0 1-1v-4a1 1 0 0 0 -1-1zm-1 4h-7v-2h7z" fill="#b3404a" data-original="#b3404a" style=""/><path d="m26 21h2v2h-2z" fill="#b3404a" data-original="#b3404a" style=""/><path d="m30 21h2v2h-2z" fill="#b3404a" data-original="#b3404a" style=""/><path d="m34 21h2v2h-2z" fill="#b3404a" data-original="#b3404a" style=""/><path d="m38 21h2v2h-2z" fill="#b3404a" data-original="#b3404a" style=""/><path d="m23 4h-9a1 1 0 0 0 -1 1v4a1 1 0 0 0 1 1h9a1 1 0 0 0 1-1v-4a1 1 0 0 0 -1-1zm-1 4h-7v-2h7z" fill="#b3404a" data-original="#b3404a" style=""/><path d="m26 6h2v2h-2z" fill="#b3404a" data-original="#b3404a" style=""/><path d="m30 6h2v2h-2z" fill="#b3404a" data-original="#b3404a" style=""/><path d="m34 6h2v2h-2z" fill="#b3404a" data-original="#b3404a" style=""/><path d="m38 6h2v2h-2z" fill="#b3404a" data-original="#b3404a" style=""/></g></g></svg>
